# Blender v2.92.0 OBJ File: ''
# www.blender.org
mtllib boid.mtl
o BoidTriangular_Cube
v 0.500000 0.500000 -0.500000
v 0.500000 -0.500000 -0.500000
v 0.000000 0.000000 3.250000
v -0.500000 0.500000 -0.500000
v -0.500000 -0.500000 -0.500000
vt 0.625000 0.500000
vt 0.875000 0.500000
vt 0.625000 0.750000
vt 0.625000 0.000000
vt 0.625000 0.250000
vt 0.375000 0.250000
vt 0.125000 0.500000
vt 0.375000 0.500000
vt 0.125000 0.750000
vt 0.375000 0.750000
vn 0.0000 0.9912 0.1322
vn -0.9912 0.0000 0.1322
vn 0.0000 -0.9912 0.1322
vn 0.9912 0.0000 0.1322
vn 0.0000 0.0000 -1.0000
usemtl Material
s off
f 1/1/1 4/2/1 3/3/1
f 3/4/2 4/5/2 5/6/2
f 5/7/3 2/8/3 3/9/3
f 2/8/4 1/1/4 3/10/4
f 5/6/5 4/5/5 1/1/5 2/8/5
